<?xml version="1.0" encoding="UTF-8" standalone="no"?>
<!DOCTYPE svg PUBLIC "-//W3C//DTD SVG 1.1//EN" "http://www.w3.org/Graphics/SVG/1.1/DTD/svg11.dtd">
<svg width="100%" height="100%" viewBox="0 0 1437 701" version="1.1" xmlns="http://www.w3.org/2000/svg" xmlns:xlink="http://www.w3.org/1999/xlink" xml:space="preserve" xmlns:serif="http://www.serif.com/" style="fill-rule:evenodd;clip-rule:evenodd;stroke-linejoin:round;stroke-miterlimit:2;">
    <g id="Artboard1" transform="matrix(0.747936,0,0,0.583902,0,0)">
        <rect x="0" y="0" width="1920" height="1200" style="fill:none;"/>
        <clipPath id="_clip1">
            <rect x="0" y="0" width="1920" height="1200"/>
        </clipPath>
        <g clip-path="url(#_clip1)">
            <g transform="matrix(1.33701,0,0,1.71262,-668.442,-351.596)">
                <g transform="matrix(288,0,0,288,562.331,418.909)">
                    <path d="M0.174,-0.72L0.27,-0.308L0.29,-0.193L0.311,-0.305L0.392,-0.72L0.551,-0.72L0.636,-0.308L0.658,-0.193L0.68,-0.303L0.776,-0.72L0.929,-0.72L0.727,-0L0.583,-0L0.496,-0.421L0.471,-0.56L0.445,-0.421L0.358,-0L0.219,-0L0.015,-0.72L0.174,-0.72Z" style="fill-rule:nonzero;"/>
                </g>
                <g transform="matrix(288,0,0,288,834.159,418.909)">
                    <rect x="0.064" y="-0.72" width="0.149" height="0.72" style="fill-rule:nonzero;"/>
                </g>
                <g transform="matrix(288,0,0,288,914.175,418.909)">
                    <path d="M0.185,-0.222C0.19,-0.189 0.199,-0.165 0.212,-0.148C0.236,-0.119 0.278,-0.104 0.337,-0.104C0.373,-0.104 0.402,-0.108 0.424,-0.116C0.466,-0.131 0.487,-0.159 0.487,-0.199C0.487,-0.223 0.476,-0.241 0.456,-0.254C0.435,-0.267 0.402,-0.278 0.357,-0.288L0.281,-0.305C0.206,-0.322 0.155,-0.34 0.126,-0.36C0.077,-0.394 0.053,-0.445 0.053,-0.516C0.053,-0.581 0.077,-0.634 0.124,-0.677C0.17,-0.719 0.239,-0.741 0.33,-0.741C0.406,-0.741 0.471,-0.721 0.524,-0.68C0.578,-0.64 0.606,-0.582 0.608,-0.505L0.464,-0.505C0.461,-0.549 0.442,-0.579 0.407,-0.598C0.384,-0.61 0.355,-0.616 0.32,-0.616C0.281,-0.616 0.25,-0.608 0.227,-0.592C0.204,-0.577 0.192,-0.555 0.192,-0.527C0.192,-0.501 0.204,-0.482 0.227,-0.469C0.241,-0.461 0.272,-0.451 0.32,-0.439L0.444,-0.41C0.499,-0.397 0.54,-0.379 0.567,-0.357C0.61,-0.324 0.632,-0.275 0.632,-0.21C0.632,-0.145 0.607,-0.09 0.556,-0.047C0.506,-0.003 0.435,0.019 0.343,0.019C0.25,0.019 0.176,-0.003 0.122,-0.046C0.068,-0.088 0.042,-0.147 0.042,-0.222L0.185,-0.222Z" style="fill-rule:nonzero;"/>
                </g>
                <g transform="matrix(288,0,0,288,1106.27,418.909)">
                    <path d="M0.222,-0.595L0.222,-0.125L0.361,-0.125C0.432,-0.125 0.481,-0.16 0.509,-0.23C0.525,-0.268 0.532,-0.314 0.532,-0.367C0.532,-0.44 0.521,-0.497 0.498,-0.536C0.475,-0.575 0.429,-0.595 0.361,-0.595L0.222,-0.595ZM0.386,-0.72C0.431,-0.719 0.468,-0.714 0.498,-0.704C0.548,-0.688 0.589,-0.657 0.62,-0.613C0.645,-0.577 0.662,-0.538 0.671,-0.497C0.681,-0.455 0.685,-0.415 0.685,-0.377C0.685,-0.282 0.666,-0.201 0.627,-0.134C0.575,-0.045 0.495,-0 0.386,-0L0.076,-0L0.076,-0.72L0.386,-0.72Z" style="fill-rule:nonzero;"/>
                </g>
                <g transform="matrix(288,0,0,288,1314.25,418.909)">
                    <path d="M0.395,-0.107C0.454,-0.107 0.501,-0.129 0.536,-0.173C0.571,-0.217 0.589,-0.28 0.589,-0.361C0.589,-0.442 0.571,-0.504 0.536,-0.548C0.501,-0.592 0.454,-0.614 0.395,-0.614C0.335,-0.614 0.287,-0.592 0.252,-0.548C0.216,-0.504 0.199,-0.442 0.199,-0.361C0.199,-0.28 0.216,-0.217 0.252,-0.173C0.287,-0.129 0.335,-0.107 0.395,-0.107ZM0.739,-0.361C0.739,-0.232 0.703,-0.133 0.63,-0.064C0.576,-0.008 0.497,0.02 0.395,0.02C0.292,0.02 0.213,-0.008 0.159,-0.064C0.086,-0.133 0.049,-0.232 0.049,-0.361C0.049,-0.493 0.086,-0.592 0.159,-0.658C0.213,-0.714 0.292,-0.742 0.395,-0.742C0.497,-0.742 0.576,-0.714 0.63,-0.658C0.703,-0.592 0.739,-0.493 0.739,-0.361Z" style="fill-rule:nonzero;"/>
                </g>
                <g transform="matrix(288,0,0,288,1538.27,418.909)">
                    <path d="M0.553,-0.72L0.77,-0.72L0.77,-0L0.629,-0L0.629,-0.487C0.629,-0.501 0.63,-0.52 0.63,-0.546C0.63,-0.571 0.63,-0.59 0.63,-0.604L0.494,-0L0.348,-0L0.213,-0.604C0.213,-0.59 0.213,-0.571 0.213,-0.546C0.214,-0.52 0.214,-0.501 0.214,-0.487L0.214,-0L0.074,-0L0.074,-0.72L0.292,-0.72L0.423,-0.154L0.553,-0.72Z" style="fill-rule:nonzero;"/>
                </g>
                <g transform="matrix(288,0,0,288,562.331,658.909)">
                    <path d="M0.395,-0.107C0.454,-0.107 0.501,-0.129 0.536,-0.173C0.571,-0.217 0.589,-0.28 0.589,-0.361C0.589,-0.442 0.571,-0.504 0.536,-0.548C0.501,-0.592 0.454,-0.614 0.395,-0.614C0.335,-0.614 0.287,-0.592 0.252,-0.548C0.216,-0.504 0.199,-0.442 0.199,-0.361C0.199,-0.28 0.216,-0.217 0.252,-0.173C0.287,-0.129 0.335,-0.107 0.395,-0.107ZM0.739,-0.361C0.739,-0.232 0.703,-0.133 0.63,-0.064C0.576,-0.008 0.497,0.02 0.395,0.02C0.292,0.02 0.213,-0.008 0.159,-0.064C0.086,-0.133 0.049,-0.232 0.049,-0.361C0.049,-0.493 0.086,-0.592 0.159,-0.658C0.213,-0.714 0.292,-0.742 0.395,-0.742C0.497,-0.742 0.576,-0.714 0.63,-0.658C0.703,-0.592 0.739,-0.493 0.739,-0.361Z" style="fill-rule:nonzero;"/>
                </g>
                <g transform="matrix(288,0,0,288,786.346,658.909)">
                    <path d="M0.076,-0.719L0.586,-0.719L0.586,-0.592L0.226,-0.592L0.226,-0.427L0.542,-0.427L0.542,-0.302L0.226,-0.302L0.226,-0L0.076,-0L0.076,-0.719Z" style="fill-rule:nonzero;"/>
                </g>
                <g transform="matrix(288,0,0,288,562.331,898.909)">
                    <path d="M0.045,-0.354C0.045,-0.48 0.079,-0.576 0.146,-0.645C0.205,-0.704 0.279,-0.733 0.37,-0.733C0.491,-0.733 0.579,-0.694 0.635,-0.614C0.666,-0.57 0.683,-0.525 0.685,-0.48L0.535,-0.48C0.525,-0.514 0.512,-0.541 0.497,-0.558C0.47,-0.589 0.429,-0.605 0.375,-0.605C0.321,-0.605 0.278,-0.583 0.246,-0.539C0.215,-0.495 0.199,-0.432 0.199,-0.352C0.199,-0.271 0.215,-0.21 0.249,-0.17C0.282,-0.13 0.325,-0.11 0.376,-0.11C0.429,-0.11 0.469,-0.127 0.497,-0.162C0.512,-0.18 0.525,-0.208 0.535,-0.245L0.684,-0.245C0.671,-0.167 0.637,-0.103 0.584,-0.054C0.53,-0.005 0.462,0.02 0.378,0.02C0.274,0.02 0.193,-0.013 0.134,-0.08C0.075,-0.146 0.045,-0.238 0.045,-0.354Z" style="fill-rule:nonzero;"/>
                </g>
                <g transform="matrix(288,0,0,288,770.315,898.909)">
                    <path d="M0.227,-0.595L0.227,-0.401L0.397,-0.401C0.431,-0.401 0.456,-0.405 0.473,-0.413C0.503,-0.427 0.518,-0.454 0.518,-0.494C0.518,-0.538 0.504,-0.567 0.475,-0.582C0.458,-0.59 0.434,-0.595 0.401,-0.595L0.227,-0.595ZM0.433,-0.72C0.483,-0.719 0.522,-0.713 0.549,-0.701C0.576,-0.69 0.599,-0.673 0.618,-0.651C0.634,-0.633 0.646,-0.612 0.655,-0.59C0.664,-0.568 0.669,-0.543 0.669,-0.515C0.669,-0.48 0.66,-0.447 0.643,-0.414C0.626,-0.381 0.597,-0.357 0.558,-0.344C0.591,-0.33 0.614,-0.311 0.628,-0.287C0.642,-0.262 0.649,-0.225 0.649,-0.174L0.649,-0.126C0.649,-0.093 0.65,-0.071 0.653,-0.059C0.657,-0.041 0.666,-0.027 0.68,-0.018L0.68,-0L0.515,-0C0.51,-0.016 0.507,-0.029 0.505,-0.039C0.501,-0.059 0.499,-0.079 0.499,-0.101L0.498,-0.167C0.497,-0.213 0.489,-0.244 0.472,-0.259C0.456,-0.275 0.426,-0.282 0.382,-0.282L0.227,-0.282L0.227,-0L0.08,-0L0.08,-0.72L0.433,-0.72Z" style="fill-rule:nonzero;"/>
                </g>
                <g transform="matrix(288,0,0,288,978.3,898.909)">
                    <path d="M0.395,-0.107C0.454,-0.107 0.501,-0.129 0.536,-0.173C0.571,-0.217 0.589,-0.28 0.589,-0.361C0.589,-0.442 0.571,-0.504 0.536,-0.548C0.501,-0.592 0.454,-0.614 0.395,-0.614C0.335,-0.614 0.287,-0.592 0.252,-0.548C0.216,-0.504 0.199,-0.442 0.199,-0.361C0.199,-0.28 0.216,-0.217 0.252,-0.173C0.287,-0.129 0.335,-0.107 0.395,-0.107ZM0.739,-0.361C0.739,-0.232 0.703,-0.133 0.63,-0.064C0.576,-0.008 0.497,0.02 0.395,0.02C0.292,0.02 0.213,-0.008 0.159,-0.064C0.086,-0.133 0.049,-0.232 0.049,-0.361C0.049,-0.493 0.086,-0.592 0.159,-0.658C0.213,-0.714 0.292,-0.742 0.395,-0.742C0.497,-0.742 0.576,-0.714 0.63,-0.658C0.703,-0.592 0.739,-0.493 0.739,-0.361Z" style="fill-rule:nonzero;"/>
                </g>
                <g transform="matrix(288,0,0,288,1202.32,898.909)">
                    <path d="M0.174,-0.72L0.27,-0.308L0.29,-0.193L0.311,-0.305L0.392,-0.72L0.551,-0.72L0.636,-0.308L0.658,-0.193L0.68,-0.303L0.776,-0.72L0.929,-0.72L0.727,-0L0.583,-0L0.496,-0.421L0.471,-0.56L0.445,-0.421L0.358,-0L0.219,-0L0.015,-0.72L0.174,-0.72Z" style="fill-rule:nonzero;"/>
                </g>
                <g transform="matrix(288,0,0,288,1474.14,898.909)">
                    <path d="M0.222,-0.595L0.222,-0.125L0.361,-0.125C0.432,-0.125 0.481,-0.16 0.509,-0.23C0.525,-0.268 0.532,-0.314 0.532,-0.367C0.532,-0.44 0.521,-0.497 0.498,-0.536C0.475,-0.575 0.429,-0.595 0.361,-0.595L0.222,-0.595ZM0.386,-0.72C0.431,-0.719 0.468,-0.714 0.498,-0.704C0.548,-0.688 0.589,-0.657 0.62,-0.613C0.645,-0.577 0.662,-0.538 0.671,-0.497C0.681,-0.455 0.685,-0.415 0.685,-0.377C0.685,-0.282 0.666,-0.201 0.627,-0.134C0.575,-0.045 0.495,-0 0.386,-0L0.076,-0L0.076,-0.72L0.386,-0.72Z" style="fill-rule:nonzero;"/>
                </g>
                <g transform="matrix(288,0,0,288,1682.13,898.909)">
                    <path d="M0.185,-0.222C0.19,-0.189 0.199,-0.165 0.212,-0.148C0.236,-0.119 0.278,-0.104 0.337,-0.104C0.373,-0.104 0.402,-0.108 0.424,-0.116C0.466,-0.131 0.487,-0.159 0.487,-0.199C0.487,-0.223 0.476,-0.241 0.456,-0.254C0.435,-0.267 0.402,-0.278 0.357,-0.288L0.281,-0.305C0.206,-0.322 0.155,-0.34 0.126,-0.36C0.077,-0.394 0.053,-0.445 0.053,-0.516C0.053,-0.581 0.077,-0.634 0.124,-0.677C0.17,-0.719 0.239,-0.741 0.33,-0.741C0.406,-0.741 0.471,-0.721 0.524,-0.68C0.578,-0.64 0.606,-0.582 0.608,-0.505L0.464,-0.505C0.461,-0.549 0.442,-0.579 0.407,-0.598C0.384,-0.61 0.355,-0.616 0.32,-0.616C0.281,-0.616 0.25,-0.608 0.227,-0.592C0.204,-0.577 0.192,-0.555 0.192,-0.527C0.192,-0.501 0.204,-0.482 0.227,-0.469C0.241,-0.461 0.272,-0.451 0.32,-0.439L0.444,-0.41C0.499,-0.397 0.54,-0.379 0.567,-0.357C0.61,-0.324 0.632,-0.275 0.632,-0.21C0.632,-0.145 0.607,-0.09 0.556,-0.047C0.506,-0.003 0.435,0.019 0.343,0.019C0.25,0.019 0.176,-0.003 0.122,-0.046C0.068,-0.088 0.042,-0.147 0.042,-0.222L0.185,-0.222Z" style="fill-rule:nonzero;"/>
                </g>
                <g transform="matrix(288,0,0,288,1874.22,898.909)">
                    <rect x="0.063" y="-0.146" width="0.148" height="0.146" style="fill-rule:nonzero;"/>
                </g>
            </g>
            <g transform="matrix(2.56722,0,0,2.71607,-158.929,-134.687)">
                <rect x="61.907" y="49.59" width="22.544" height="441.813"/>
            </g>
        </g>
    </g>
</svg>
